<svg viewBox="0 0 1920 1080" version="1.0" xmlns="http://www.w3.org/2000/svg" preserveAspectRatio="xMidYMid slice">
	<polygon data-id="30" data-sec="1" data-build="1" data-floor="3" class="s3d-svg__house js-s3d-svg__house" points="1010.3333333333,730.66666666667,1007,793.66666666667,1033.6666666667,795.66666666667,1045.3333333333,795.33333333333,1059.3333333333,794.66666666667,1074.6666666667,790.33333333333,1086.6666666667,785,1101.3333333333,779.33333333333,1110.6666666667,776.33333333333,1120,770.33333333333,1177.3333333333,726.33333333333,1179.6666666667,721.33333333333,1179,716.66666666667,1179.6666666667,711,1177.6666666667,706.33333333333,1174.6666666667,705.33333333333,1175,670.33333333333,1102.6666666667,721.33333333333,1096.3333333333,725.33333333333,1091.3333333333,727.66666666667,1088,728.66666666667,1083,731,1077.3333333333,733.66666666667,1071,734.66666666667,1061.6666666667,735.66666666667,1049,736.66666666667,1038,735"></polygon>
	<polygon data-id="33" data-sec="1" data-build="1" data-floor="3" class="s3d-svg__house js-s3d-svg__house" points="727,688.66666666667,729,749.33333333333,722.66666666667,748.33333333333,717.66666666667,747.66666666667,712.66666666667,746,707.66666666667,745,702.66666666667,744.66666666667,699.66666666667,739.33333333333,699.33333333333,733,697,729,697.66666666667,724.33333333333,699,722.66666666667,704,721.33333333333,703.33333333333,684.66666666667"></polygon>
	<polygon data-id="34" data-sec="1" data-build="1" data-floor="4" class="s3d-svg__house js-s3d-svg__house" points="1010.3333333333,670.33333333333,1009.6666666667,730.66666666667,1048.6666666667,735.66666666667,1059.6666666667,735.66666666667,1066.6666666667,735,1074,733.33333333333,1080.3333333333,731.66666666667,1087.3333333333,728.66666666667,1095.3333333333,725,1099.3333333333,723,1175.6666666667,669,1180,666.33333333333,1182.3333333333,664.33333333333,1182.3333333333,661.66666666667,1181.3333333333,659,1182.6666666667,657.33333333333,1182.6666666667,655,1180.3333333333,653,1179,651,1176.3333333333,649.33333333333,1177.3333333333,615,1086.6666666667,672,1081,674,1075.6666666667,676.66666666667,1070,678,1063.3333333333,677,1055.6666666667,677"></polygon>
	<polygon data-id="35" data-sec="1" data-build="1" data-floor="4" class="s3d-svg__house js-s3d-svg__house" points="854.66666666667,648.66666666667,855.66666666667,706,1009.6666666667,730,1011,670.33333333333"></polygon>
	<polygon data-id="36" data-sec="1" data-build="1" data-floor="4" class="s3d-svg__house js-s3d-svg__house" points="726.33333333333,632.33333333333,725.66666666667,688.33333333333,855.33333333333,705.66666666667,855,648.66666666667"></polygon>
	<polygon data-id="37" data-sec="1" data-build="1" data-floor="4" class="s3d-svg__house js-s3d-svg__house" points="726.33333333333,631.66666666667,726,687.33333333333,717.33333333333,686,704,684,696.66666666667,681.33333333333,694.33333333333,678,694.33333333333,674.66666666667,694.33333333333,669.33333333333,697,665.66666666667,702.66666666667,663.66666666667,702.66666666667,627.33333333333"></polygon>
	<polygon data-id="38" data-sec="1" data-build="1" data-floor="5" class="s3d-svg__house js-s3d-svg__house" points="1011.3333333333,609.33333333333,1010,670.66666666667,1056,676,1063.6666666667,677,1071.3333333333,677,1078,675.66666666667,1084.6666666667,673.33333333333,1178.3333333333,613.33333333333,1182.6666666667,610,1184.6666666667,606.33333333333,1183.6666666667,602.33333333333,1184.6666666667,599,1183,595.66666666667,1179.3333333333,594.66666666667,1179,557,1090.3333333333,608.33333333333,1086.3333333333,612.66666666667,1080.3333333333,614.66666666667,1071,615,1060.3333333333,614,1044.3333333333,612.33333333333"></polygon>
	<polygon data-id="40" data-sec="1" data-build="1" data-floor="5" class="s3d-svg__house js-s3d-svg__house" points="725.66666666667,573.33333333333,726.66666666667,632,853.33333333333,648,855,589.66666666667"></polygon>
	<polygon data-id="41" data-sec="1" data-build="1" data-floor="5" class="s3d-svg__house js-s3d-svg__house" points="726,573.66666666667,727.33333333333,631.33333333333,713.66666666667,629.66666666667,702.66666666667,627.66666666667,695,624.33333333333,693,623,693,619,692,616,692.33333333333,612.66666666667,696,609,700.66666666667,607.66666666667,700,568.66666666667"></polygon>
	<polygon data-id="42" data-sec="1" data-build="1" data-floor="6" class="s3d-svg__house js-s3d-svg__house" points="1012.6666666667,546.33333333333,1011.3333333333,609,1039.6666666667,612,1050.3333333333,612.66666666667,1056.6666666667,613.66666666667,1065,613.66666666667,1075,614.33333333333,1083.3333333333,613.33333333333,1090,609,1182.6666666667,554.66666666667,1186,550.66666666667,1185.6666666667,545.66666666667,1186.3333333333,542,1184.3333333333,539.33333333333,1180.6666666667,539,1181,498.33333333333,1097.3333333333,545,1092.3333333333,548.33333333333,1085.3333333333,551,1077.3333333333,552,1069.3333333333,552,1057.3333333333,552,1044,550,1022.3333333333,547.66666666667"></polygon>
	<polygon data-id="43" data-sec="1" data-build="1" data-floor="6" class="s3d-svg__house js-s3d-svg__house" points="856.66666666667,529.33333333333,855.33333333333,589.66666666667,1011.3333333333,608,1012.3333333333,546.33333333333,934,537.33333333333,866,529.66666666667"></polygon>
	<polygon data-id="45" data-sec="1" data-build="1" data-floor="6" class="s3d-svg__house js-s3d-svg__house" points="725,514,725.33333333333,573,702.66666666667,569.33333333333,694,566.66666666667,690.66666666667,565,689,560.33333333333,689.33333333333,556.66666666667,691.33333333333,553,695,552.33333333333,696.66666666667,549.66666666667,696.66666666667,509.33333333333"></polygon>
	<polygon data-id="31" data-sec="1" data-build="1" data-floor="3" class="s3d-svg__house js-s3d-svg__house" points="855.66666666667,706.66666666667,855.66666666667,770.33333333333,1006.3333333333,793.66666666667,1010.3333333333,730.33333333333"></polygon>
	<polygon data-id="32" data-sec="1" data-build="1" data-floor="3" class="s3d-svg__house js-s3d-svg__house" points="856,706.33333333333,856,769,729.33333333333,750.66666666667,727,689"></polygon>
	<polygon data-id="39" data-sec="1" data-build="1" data-floor="5" class="s3d-svg__house js-s3d-svg__house" points="854.66666666667,590,853.66666666667,649,1010,670,1011.3333333333,608.66666666667,972.33333333333,603.33333333333,898,594.66666666667"></polygon>
	<polygon data-id="44" data-sec="1" data-build="1" data-floor="6" class="s3d-svg__house js-s3d-svg__house" points="724.66666666667,514,726,573.33333333333,855.66666666667,589,857.33333333333,529,840.66666666667,526,759,517.33333333333"></polygon>
	<polygon data-id="53" data-sec="1" data-build="1" data-floor="8"
			 class="s3d-svg__house js-s3d-svg__house"
			 points="717.19999694824,391.5,721.19999694824,453.5,691.19999694824,449,685.19999694824,447,686.19999694824,439,688.69999694824,435,693.19999694824,433,693.19999694824,389.5"></polygon>
	<polygon data-id="52" data-sec="1" data-build="1" data-floor="8"
			 class="s3d-svg__house js-s3d-svg__house"
			 points="718.69999694824,391,721.19999694824,455,851.19999694824,464.5,851.69999694824,402.5"></polygon>
	<polygon data-id="51" data-sec="1" data-build="1" data-floor="8"
			 class="s3d-svg__house js-s3d-svg__house"
			 points="852.69999694824,402,851.19999694824,467,999.69999694824,482,1002.6999969482,417.5"></polygon>
	<polygon data-id="50" data-sec="1" data-build="1" data-floor="8"
			 class="s3d-svg__house js-s3d-svg__house"
			 points="1002.6999969482,418.5,1000.1999969482,483.5,1034.6999969482,485.5,1058.1999969482,488.5,1078.6999969482,487.5,1091.1999969482,485,1105.1999969482,478.5,1188.6999969482,436,1189.1999969482,427.5,1187.1999969482,424,1183.6999969482,421.5,1184.1999969482,380,1095.1999969482,418,1077.6999969482,422,1061.6999969482,422"></polygon>
	<polygon data-id="49" data-sec="1" data-build="1" data-floor="7"
			 class="s3d-svg__house js-s3d-svg__house"
			 points="721.69999694824,453.5,721.19999694824,512,696.19999694824,509.5,690.19999694824,505.5,687.19999694824,499,687.19999694824,495.5,694.69999694824,494,694.19999694824,451"></polygon>
	<polygon data-id="48" data-sec="1" data-build="1" data-floor="7"
			 class="s3d-svg__house js-s3d-svg__house"
			 points="720.69999694824,455,721.19999694824,513,849.19999694824,527.5,851.19999694824,466"></polygon>
	<polygon data-id="47" data-sec="1" data-build="1" data-floor="7"
			 class="s3d-svg__house js-s3d-svg__house"
			 points="851.19999694824,466,849.19999694824,529.5,996.19999694824,544.5,1000.1999969482,483"></polygon>
	<polygon data-id="46" data-sec="1" data-build="1" data-floor="7"
			 class="s3d-svg__house js-s3d-svg__house"
			 points="1000.6999969482,483.5,996.69999694824,546.5,1044.6999969482,551.5,1063.1999969482,553,1074.6999969482,553,1090.1999969482,548.5,1099.1999969482,542,1113.6999969482,535.5,1127.1999969482,527.5,1139.1999969482,522,1150.1999969482,515.5,1165.6999969482,507.5,1177.6999969482,498,1184.1999969482,495,1187.1999969482,491.5,1187.1999969482,485.5,1182.6999969482,481.5,1181.1999969482,479,1183.6999969482,440,1105.6999969482,479.5,1091.1999969482,485.5,1079.1999969482,488,1058.6999969482,489,1034.1999969482,485.5"></polygon>

	<polygon data-id="15139" data-sec="1" data-build="1" data-floor="9" class="s3d-svg__house js-s3d-svg__house" points="692.19999694824,328,693.19999694824,372,683.69999694824,375.5,684.19999694824,385,741.69999694824,393.5,741.19999694824,332"></polygon>
	<polygon data-id="15138" data-sec="1" data-build="1" data-floor="9" class="s3d-svg__house js-s3d-svg__house" points="742.19999694824,332.5,743.19999694824,391,862.69999694824,404.5,862.19999694824,340"></polygon>
	<polygon data-id="54" data-sec="1" data-build="1" data-floor="9" class="s3d-svg__house js-s3d-svg__house" points="862.19999694824,341.5,862.69999694824,404.5,1051.1999969482,422.5,1072.6999969482,422,1086.1999969482,421.5,1099.6999969482,415.5,1192.1999969482,375,1192.6999969482,365.5,1188.6999969482,364,1186.6999969482,364,1186.6999969482,319.5,1091.6999969482,355,1073.1999969482,355.5"></polygon>
	<polygon data-id="15141" data-sec="1" data-build="1" data-floor="10" class="s3d-svg__house js-s3d-svg__house" points="689.19999694824,255,689.69999694824,310,682.69999694824,313,681.19999694824,316.5,682.19999694824,324.5,849.69999694824,339.5,851.19999694824,268.5"></polygon>
	<polygon data-id="56" data-sec="1" data-build="1" data-floor="10" class="s3d-svg__house js-s3d-svg__house" points="851.69999694824,267.5,850.19999694824,338.5,1073.6999969482,356,1092.1999969482,355.5,1191.6999969482,315.5,1193.1999969482,312.5,1190.6999969482,306.5,1191.1999969482,304,1191.6999969482,247.5,1093.6999969482,280,1070.6999969482,280.5"></polygon>

</svg>
