<svg preserveAspectRatio="xMidYMid slice" id="floor--svg"  viewBox="0 0 1920 1080" version="1.0" xmlns="http://www.w3.org/2000/svg"><polygon  data-sec="1" data-build="1" data-floor="1" class="s3d-svg__house js-s3d-svg__house" points="744.66666666667,761.66666666667,747.66666666667,806,887,894.66666666667,904,902.33333333333,913.33333333333,903.33333333333,925.33333333333,901.33333333333,934.66666666667,898,949,893.33333333333,964.33333333333,885,976,879.66666666667,989,872.66666666667,1140.6666666667,766,1140.3333333333,742,954.66666666667,853,942.33333333333,859.66666666667,935.33333333333,861.66666666667,926.66666666667,864.33333333333,919.33333333333,865.66666666667,912,864"></polygon><polygon  data-sec="1" data-build="1" data-floor="2" class="s3d-svg__house js-s3d-svg__house" points="743,711.33333333333,743,738.66666666667,740.33333333333,740.66666666667,740.33333333333,745,740.66666666667,749,741,754,742.33333333333,759.66666666667,743.66666666667,761,908.33333333333,861,913.66666666667,865,921.33333333333,865.66666666667,926,864.66666666667,937.33333333333,861,943,858.66666666667,952,853.33333333333,1147.6666666667,736.66666666667,1156,730,1156.6666666667,725,1157,719.33333333333,1154.6666666667,715.33333333333,1153.3333333333,712,1147.6666666667,707.66666666667,1148.3333333333,690,958.66666666667,815.66666666667,945.33333333333,818.66666666667,936.66666666667,818.66666666667,929.66666666667,819,923.33333333333,815.66666666667"></polygon><polygon  data-sec="1" data-build="1" data-floor="3" class="s3d-svg__house js-s3d-svg__house" points="744,661.66666666667,745,682.66666666667,739.33333333333,688.33333333333,737,694.33333333333,738.66666666667,699,738,704.33333333333,739.33333333333,708.66666666667,742.33333333333,710.66666666667,923,815.66666666667,930.33333333333,819,936.33333333333,818.66666666667,945.66666666667,818.66666666667,957.66666666667,815.33333333333,1148.6666666667,688.66666666667,1156.3333333333,683,1159,680.66666666667,1159.3333333333,672.66666666667,1159.3333333333,668,1157.6666666667,664.66666666667,1153.3333333333,660.66666666667,1153.3333333333,637.66666666667,963.66666666667,757.66666666667,955.66666666667,762,945.33333333333,763.66666666667,936,763.33333333333,929,763"></polygon><polygon  data-sec="1" data-build="1" data-floor="4" class="s3d-svg__house js-s3d-svg__house" points="742.66666666667,614.33333333333,743,636,735.66666666667,641,734.66666666667,648.33333333333,734.66666666667,653.66666666667,737,656.33333333333,742,660.33333333333,929,762.66666666667,936,762.33333333333,945,763,956.33333333333,761.33333333333,964.33333333333,757,1153.3333333333,637.33333333333,1157,633,1160,630,1160.6666666667,625.33333333333,1161,622.66666666667,1160.6666666667,618.33333333333,1156.6666666667,614.66666666667,1154.3333333333,614.66666666667,1152.6666666667,590,969.66666666667,703,961.33333333333,707.66666666667,953.33333333333,711.33333333333,945,712.33333333333,935.33333333333,712,925.33333333333,709.66666666667"></polygon><polygon  data-sec="1" data-build="1" data-floor="5" class="s3d-svg__house js-s3d-svg__house" points="739.33333333333,562.66666666667,739.33333333333,589,734.66666666667,593,733.66666666667,596,733.66666666667,600.33333333333,734,604,736,606.66666666667,737.33333333333,608.33333333333,742.33333333333,614.66666666667,925,709.33333333333,934.66666666667,712,944.33333333333,712,952.66666666667,711.66666666667,961.66666666667,706.66666666667,970,703,1158,587,1162.3333333333,582.66666666667,1163,576.66666666667,1163.3333333333,571.66666666667,1161.3333333333,569,1156.3333333333,567,1154.3333333333,566.33333333333,1154,542,964.66666666667,653.66666666667,956.66666666667,657.33333333333,949.33333333333,658.33333333333,939,659.33333333333,929,658.33333333333,920.33333333333,654.66666666667"></polygon><polygon  data-sec="1" data-build="1" data-floor="6" class="s3d-svg__house js-s3d-svg__house" points="737.33333333333,513,738.33333333333,541,732,544.33333333333,730.66666666667,548,730,555,733.66666666667,559.33333333333,736,561,739.33333333333,563,921.33333333333,654.66666666667,929,658,938.66666666667,658.66666666667,949.33333333333,658.66666666667,955.33333333333,656.33333333333,965,653.66666666667,1159.3333333333,539,1165,535.33333333333,1165.3333333333,529.66666666667,1165.3333333333,525,1164,523.66666666667,1160.6666666667,519.66666666667,1157,518.66666666667,1155.6666666667,494.33333333333,958,601.66666666667,950,604.33333333333,938,604,927.66666666667,603.66666666667"></polygon><polygon  data-sec="1" data-build="1" data-floor="7" class="s3d-svg__house js-s3d-svg__house" points="734.33333333333,462.33333333333,736.33333333333,492.33333333333,729.66666666667,494.33333333333,727.66666666667,501,729.66666666667,508.66666666667,733.33333333333,510.66666666667,740.66666666667,514.66666666667,928,603.66666666667,939,604.66666666667,949.66666666667,604,958.33333333333,602.33333333333,1158.6666666667,491,1164,487,1167.6666666667,484.66666666667,1167.6666666667,479.33333333333,1167.6666666667,475.66666666667,1167,472.66666666667,1162.3333333333,470.66666666667,1159,470,1160.6666666667,441.66666666667,963.66666666667,544.66666666667,951.66666666667,549,947.66666666667,549.33333333333,941.66666666667,549.33333333333,936.33333333333,549.33333333333,923.66666666667,547.66666666667"></polygon><polygon  data-sec="1" data-build="1" data-floor="8" class="s3d-svg__house js-s3d-svg__house" points="733,409.66666666667,734.33333333333,438.66666666667,728,442.66666666667,725,446.33333333333,727,453.66666666667,727.33333333333,457.66666666667,733.66666666667,462.66666666667,923.33333333333,547.33333333333,936.33333333333,548.33333333333,941.66666666667,548,948.33333333333,548.33333333333,952,548,963.33333333333,543,1164.3333333333,438.33333333333,1169.3333333333,434.66666666667,1170.3333333333,431.33333333333,1170.3333333333,426.33333333333,1168,423.33333333333,1164,420,1161.3333333333,418.66666666667,1162.6666666667,389.66666666667,955.33333333333,491,949.66666666667,491.66666666667,943.33333333333,491.66666666667,933.66666666667,492.33333333333,920.33333333333,488.66666666667"></polygon><polygon  data-sec="1" data-build="1" data-floor="9" class="s3d-svg__house js-s3d-svg__house" points="730.66666666667,355.66666666667,730.66666666667,387.33333333333,725.33333333333,390,723,392.66666666667,722.66666666667,397,724,405.33333333333,726.33333333333,406.33333333333,730.33333333333,409,733.66666666667,409.66666666667,920.33333333333,489.33333333333,933,492.33333333333,943.33333333333,491.66666666667,949.33333333333,491.66666666667,955,490,1163,388.66666666667,1169.3333333333,385,1172,383.33333333333,1172,377,1172.3333333333,373.33333333333,1168.6666666667,370.66666666667,1165.3333333333,368.33333333333,1165,336.66666666667,974.33333333333,424.66666666667,958.33333333333,431.66666666667,949,433.66666666667,940,434,931.33333333333,433.66666666667,923.33333333333,432.66666666667"></polygon><polygon  data-sec="1" data-build="1" data-floor="10" class="s3d-svg__house js-s3d-svg__house" points="731.33333333333,294,731.66666666667,314.33333333333,722.66666666667,317,720.33333333333,322,721.33333333333,330,721.33333333333,336,720,340.66666666667,720.33333333333,349.33333333333,726,352,731,355.66666666667,923,433,931.66666666667,433.33333333333,940,433.66666666667,948.66666666667,433,958,430.66666666667,974.66666666667,424,1165,337,1169.6666666667,334.33333333333,1173.6666666667,331.66666666667,1175.6666666667,328.66666666667,1174.6666666667,325.66666666667,1174.6666666667,322,1173.3333333333,319,1170,317,1166.6666666667,315.66666666667,1168,275,966.66666666667,361,958.33333333333,365.33333333333,947.66666666667,367.33333333333,942.66666666667,367.33333333333,933.33333333333,367,920.66666666667,364.33333333333"></polygon></svg>