<svg preserveAspectRatio="xMidYMid slice" id="floor--svg"  viewBox="0 0 1920 1080" version="1.0" xmlns="http://www.w3.org/2000/svg"><polygon  data-sec="1" data-build="1" data-floor="1" class="s3d-svg__house js-s3d-svg__house" points="921.66666666667,866.66666666667,869.66666666667,889.33333333333,866.66666666667,892,922,917.33333333333,931.66666666667,921,946.33333333333,921.66666666667,957,919.66666666667,962.66666666667,918.33333333333,973.66666666667,913.33333333333,990.33333333333,905,1039,880,1041.6666666667,882,1049.6666666667,878.66666666667,1142,834.33333333333,1143.3333333333,823.33333333333,1140.6666666667,823.33333333333,1137,821.66666666667,1135.6666666667,818,1136,815.33333333333,1137.3333333333,812,1138.6666666667,807.33333333333,1139.6666666667,804,1140,800.33333333333,1143,798.66666666667,1144.3333333333,798,1146.6666666667,797.33333333333,1152,796,1153.3333333333,795.33333333333,1158.6666666667,790.33333333333,1158.6666666667,787.33333333333,1160.3333333333,783.66666666667,1163.6666666667,782.66666666667,1165.3333333333,782.66666666667,1166,778.66666666667,1172.3333333333,772,1171.6666666667,768.66666666667,1170.6666666667,765.66666666667,1173.3333333333,762.33333333333,1178.6666666667,760,1178.6666666667,758.33333333333,1179,755.33333333333,1079,803,1070.3333333333,804"></polygon><polygon  data-sec="1" data-build="1" data-floor="2" class="s3d-svg__house js-s3d-svg__house" points="755.33333333333,754.33333333333,755.66666666667,788.33333333333,752.33333333333,791.66666666667,749.33333333333,793,747.33333333333,796.66666666667,747.33333333333,799.33333333333,749.66666666667,803.66666666667,748.66666666667,805,748.66666666667,809.33333333333,750.33333333333,812,756.33333333333,814.33333333333,939,859.33333333333,1069,803.33333333333,1078.6666666667,803.33333333333,1179.6666666667,754.66666666667,1182.3333333333,750.66666666667,1182.3333333333,745.33333333333,1183,742,1182,740,1181.6666666667,700.66666666667,1080.6666666667,744,1073.3333333333,742.66666666667,963,790.33333333333,956,792.33333333333,949.33333333333,794.33333333333,941.33333333333,794.33333333333,937.33333333333,794.33333333333"></polygon><polygon  data-sec="1" data-build="1" data-floor="3" class="s3d-svg__house js-s3d-svg__house" points="752.66666666667,692.66666666667,754,729.33333333333,749.33333333333,731.66666666667,746,734.66666666667,745.66666666667,737.66666666667,745.66666666667,742,745.66666666667,745,745.66666666667,747.33333333333,747.33333333333,750.33333333333,751.33333333333,752.33333333333,754.66666666667,753,936.33333333333,794.33333333333,941.33333333333,794.66666666667,949,794,957.33333333333,792.33333333333,964,789.66666666667,1072.6666666667,742,1081.3333333333,744.33333333333,1181.3333333333,700,1183,697.33333333333,1182,694,1181.6666666667,691,1183.3333333333,687.66666666667,1181.3333333333,685.33333333333,1177.3333333333,682,1178.6666666667,645,1080.3333333333,679.66666666667,1072.6666666667,679.66666666667,954,728.33333333333,946.33333333333,729,934.33333333333,728.66666666667"></polygon><polygon  data-sec="1" data-build="1" data-floor="4" class="s3d-svg__house js-s3d-svg__house" points="751.66666666667,633.66666666667,751.66666666667,669.33333333333,745.33333333333,673.66666666667,742,678.66666666667,744.33333333333,684.66666666667,744.66666666667,687.66666666667,747.33333333333,688.66666666667,751.33333333333,691,934.33333333333,728.66666666667,946,729.66666666667,954,727.66666666667,1072.3333333333,680,1080,679.33333333333,1179,643.66666666667,1182,642.33333333333,1184.6666666667,640.66666666667,1184.6666666667,634,1184.6666666667,631.33333333333,1179.6666666667,628.66666666667,1178,591.66666666667,1079.6666666667,624.66666666667,1073.3333333333,622.66666666667,965,663,955.33333333333,666.66666666667,948,667.33333333333,939.66666666667,666.33333333333,932,665.66666666667"></polygon><polygon  data-sec="1" data-build="1" data-floor="5" class="s3d-svg__house js-s3d-svg__house" points="750.66666666667,573.66666666667,751.33333333333,611.33333333333,747.33333333333,615.33333333333,743.66666666667,618.33333333333,743.33333333333,622.33333333333,744.33333333333,627.33333333333,745.33333333333,630.66666666667,750,632,751.33333333333,632.66666666667,932,666.33333333333,939.66666666667,666.33333333333,947.66666666667,667,956.33333333333,666.66666666667,965.33333333333,662.33333333333,1073,622.33333333333,1080.3333333333,625.33333333333,1178,591.66666666667,1182,586.33333333333,1184.3333333333,582.33333333333,1185,579,1184,576.66666666667,1180.6666666667,578,1180.3333333333,535,1082.6666666667,565.66666666667,1073.3333333333,564.33333333333,968.33333333333,601.66666666667,960.66666666667,604,952.33333333333,605,944.66666666667,605.33333333333,938.33333333333,605"></polygon><polygon  data-sec="1" data-build="1" data-floor="6" class="s3d-svg__house js-s3d-svg__house" points="749,514.66666666667,749.33333333333,554.33333333333,744.33333333333,557,741,559.66666666667,741,561.33333333333,741,568.66666666667,747,570.66666666667,750,573.33333333333,938,605,945,605,952.66666666667,605.66666666667,961,604,968,601.66666666667,1073.3333333333,564.33333333333,1082.6666666667,565.66666666667,1180.3333333333,534,1184.3333333333,530.66666666667,1187.3333333333,525,1186.3333333333,522,1181.6666666667,522.33333333333,1182.3333333333,478.66666666667,1081.3333333333,506.33333333333,1071.6666666667,504.33333333333,965.66666666667,536.33333333333,956.66666666667,538.33333333333,949.33333333333,539.66666666667,942.33333333333,539.33333333333"></polygon><polygon  data-sec="1" data-build="1" data-floor="7" class="s3d-svg__house js-s3d-svg__house" points="748,453.66666666667,748.33333333333,495,742.33333333333,497.33333333333,738.33333333333,501.33333333333,739.66666666667,508.33333333333,742,511.66666666667,749,513.66666666667,942.33333333333,539,949.66666666667,539.66666666667,957,537.66666666667,965.66666666667,536,1070.6666666667,503.66666666667,1081.6666666667,506.33333333333,1182,478,1186,475,1187.3333333333,468.66666666667,1184.3333333333,465.66666666667,1178.3333333333,465,1179.3333333333,422,1084,445,1073.6666666667,444,959.33333333333,473.33333333333,949.33333333333,475,938.66666666667,474.33333333333"></polygon><polygon  data-sec="1" data-build="1" data-floor="8" class="s3d-svg__house js-s3d-svg__house" points="744,391,745,437.33333333333,739.66666666667,438.33333333333,737,440.33333333333,739.66666666667,445.66666666667,737.66666666667,448,742.33333333333,450.66666666667,747.66666666667,453.33333333333,938.66666666667,474.33333333333,949.33333333333,475,959.33333333333,472.66666666667,1073.3333333333,444,1084.3333333333,445,1181.3333333333,422,1185.6666666667,421.33333333333,1188.6666666667,420,1189.6666666667,418.33333333333,1188.3333333333,414,1189.6666666667,411,1182.3333333333,408.66666666667,1183.3333333333,365,1085,384.33333333333,1073.3333333333,384,965.33333333333,408.33333333333,946.33333333333,410.66666666667,937,411"></polygon><polygon  data-sec="1" data-build="1" data-floor="9" class="s3d-svg__house js-s3d-svg__house" points="745.33333333333,328.33333333333,746,374.33333333333,739,377.66666666667,736,378.66666666667,736.66666666667,387.66666666667,741.66666666667,390,743.66666666667,390.33333333333,936,410.66666666667,947.33333333333,411,965.33333333333,408.66666666667,1073,383.66666666667,1085.3333333333,384.33333333333,1183.6666666667,365.33333333333,1190.3333333333,362.66666666667,1190,354,1184.3333333333,352,1181.6666666667,352,1182.3333333333,307.33333333333,1085.6666666667,323,1075,322.66666666667,974.33333333333,341.66666666667,961,343.66666666667,948.33333333333,344.33333333333,943,344.66666666667"></polygon><polygon  data-sec="1" data-build="1" data-floor="10" class="s3d-svg__house js-s3d-svg__house" points="744.33333333333,255.33333333333,743.66666666667,314,738,315.33333333333,736,316,736,318.33333333333,736,323.33333333333,738.66666666667,325.33333333333,744.66666666667,326.66666666667,942.66666666667,344.33333333333,948.33333333333,344,961.33333333333,343.66666666667,973.66666666667,342,1075.3333333333,323.33333333333,1086,321.66666666667,1186.3333333333,306,1192,303.66666666667,1192,300,1192,296.33333333333,1192.6666666667,288.33333333333,1193,277.66666666667,1191,274.33333333333,1178.6666666667,271.66666666667,1179,241.66666666667,969,267.33333333333,950,270,931.66666666667,271"></polygon></svg>
