<svg preserveAspectRatio="xMidYMid slice" id="floor--svg"  viewBox="0 0 1920 1080" version="1.0" xmlns="http://www.w3.org/2000/svg"><polygon  data-sec="1" data-build="1" data-floor="1" class="s3d-svg__house js-s3d-svg__house" points="707.33333333333,794.66666666667,709.33333333333,851.33333333333,1008.3333333333,905.66666666667,1067.6666666667,913.66666666667,1074,914,1077.6666666667,913,1078,858.66666666667,1071.3333333333,860.33333333333,1060.3333333333,860.66666666667"></polygon><polygon  data-sec="1" data-build="1" data-floor="2" class="s3d-svg__house js-s3d-svg__house" points="703.33333333333,744,706.66666666667,794.66666666667,1035.3333333333,854.66666666667,1053.3333333333,859.66666666667,1061,860,1069.6666666667,859.33333333333,1075.6666666667,858,1174,761.33333333333,1175.3333333333,728,1078.6666666667,799,1065.6666666667,800.66666666667,1050.6666666667,800"></polygon><polygon  data-sec="1" data-build="1" data-floor="3" class="s3d-svg__house js-s3d-svg__house" points="703.33333333333,685,704,719,700.33333333333,720.33333333333,697.33333333333,725,696.66666666667,730,697.33333333333,733.66666666667,699.33333333333,737,701.33333333333,741.33333333333,702.66666666667,743.33333333333,1050.3333333333,799.66666666667,1065.3333333333,799.66666666667,1078.6666666667,798,1175.3333333333,727.33333333333,1178.3333333333,724.33333333333,1179.6666666667,720.66666666667,1179.3333333333,718,1178.3333333333,714,1178.3333333333,711,1177,704.33333333333,1176,704,1175.6666666667,669.33333333333,1088.6666666667,729,1079.3333333333,734.66666666667,1066.6666666667,737.33333333333"></polygon><polygon  data-sec="1" data-build="1" data-floor="4" class="s3d-svg__house js-s3d-svg__house" points="702,628,701.66666666667,662.33333333333,696.66666666667,665,694.66666666667,667.66666666667,693.66666666667,672.33333333333,694,675.66666666667,695.33333333333,679,698.33333333333,681.66666666667,702.33333333333,684,1066,737.66666666667,1079.6666666667,735,1089.3333333333,729,1181.3333333333,665,1182.6666666667,659.66666666667,1182.6666666667,654.33333333333,1180.3333333333,652.33333333333,1176.6666666667,649.33333333333,1178,612.66666666667,1091.3333333333,669.66666666667,1082.6666666667,673.66666666667,1074.3333333333,675.66666666667,1064.3333333333,676.33333333333"></polygon><polygon  data-sec="1" data-build="1" data-floor="5" class="s3d-svg__house js-s3d-svg__house" points="700,569.33333333333,700,605,694.66666666667,609.33333333333,691.66666666667,613.33333333333,692,621,695.33333333333,624.66666666667,700.66666666667,626.66666666667,1064.3333333333,676.66666666667,1073.6666666667,675.66666666667,1083.6666666667,673.33333333333,1090.3333333333,669.66666666667,1181.3333333333,610.33333333333,1185,606,1184,598.66666666667,1179.6666666667,595.66666666667,1180,556,1094.3333333333,606.66666666667,1085,611.33333333333,1079.3333333333,613.33333333333,1073.3333333333,614"></polygon><polygon  data-sec="1" data-build="1" data-floor="6" class="s3d-svg__house js-s3d-svg__house" points="696.33333333333,510,696.33333333333,548.33333333333,691.33333333333,551.66666666667,690.33333333333,555.33333333333,690,561.33333333333,691.66666666667,565.33333333333,700,568.66666666667,1073,613.66666666667,1080,612.66666666667,1084,610.66666666667,1182.6666666667,554,1185,550.66666666667,1184.6666666667,544.33333333333,1182,541,1181.3333333333,539.66666666667,1181,496,1092.3333333333,545.66666666667,1081,551.33333333333,1067.3333333333,550.66666666667"></polygon><polygon  data-sec="1" data-build="1" data-floor="7" class="s3d-svg__house js-s3d-svg__house" points="694.66666666667,450.66666666667,695.33333333333,488,690.66666666667,492.66666666667,689,497.33333333333,689.66666666667,500.33333333333,691.33333333333,504.33333333333,692.66666666667,507,695.66666666667,509.66666666667,1066.3333333333,550.66666666667,1081.3333333333,552,1092,545.66666666667,1184.6666666667,494.66666666667,1187.6666666667,492.33333333333,1187.6666666667,487.33333333333,1186,482.66666666667,1183,481.33333333333,1183.3333333333,439,1090,486,1082.6666666667,488,1072.3333333333,488"></polygon><polygon  data-sec="1" data-build="1" data-floor="8" class="s3d-svg__house js-s3d-svg__house" points="693,389,694.66666666667,430,687.66666666667,433.66666666667,685.66666666667,437.33333333333,687.33333333333,441.66666666667,687.33333333333,446.33333333333,691,449,694,450,1071.6666666667,487.66666666667,1083.3333333333,488.33333333333,1090,485.66666666667,1187,436,1189.3333333333,432.33333333333,1188,426,1185.6666666667,423.66666666667,1183.6666666667,423,1183.6666666667,380,1101.3333333333,417.33333333333,1082,422.66666666667,1068,423.33333333333"></polygon><polygon  data-sec="1" data-build="1" data-floor="9" class="s3d-svg__house js-s3d-svg__house" points="690.66666666667,326.66666666667,690.66666666667,371.33333333333,687.33333333333,372.33333333333,683.33333333333,375.33333333333,683.66666666667,377.66666666667,683.66666666667,384.66666666667,688,386.33333333333,692.66666666667,389,1068,422.33333333333,1082,422.33333333333,1102,416,1185,377.66666666667,1190,375.66666666667,1190.3333333333,373,1190.6666666667,367,1188.6666666667,365,1185.3333333333,364,1186.3333333333,319,1092.6666666667,355.33333333333,1083,357.33333333333,1071,356.66666666667"></polygon><polygon  data-sec="1" data-build="1" data-floor="10" class="s3d-svg__house js-s3d-svg__house" points="687.33333333333,256,689.33333333333,309.33333333333,682.66666666667,313.33333333333,682,316,681,322,685.66666666667,325.66666666667,690.33333333333,326.33333333333,1070.6666666667,356.33333333333,1083.3333333333,357,1093.6666666667,354.33333333333,1187.6666666667,316.66666666667,1193,313.66666666667,1193,310.66666666667,1193,306.66666666667,1192.3333333333,303,1191.6666666667,247,1096,279,1080.6666666667,280.33333333333,1073.6666666667,280.66666666667"></polygon></svg>