<svg preserveAspectRatio="xMidYMid slice" id="floor--svg"  viewBox="0 0 1920 1080" version="1.0" xmlns="http://www.w3.org/2000/svg"><polygon  data-sec="1" data-build="1" data-floor="1" class="s3d-svg__house js-s3d-svg__house" points="771,754.66666666667,772,802,1008,887.66666666667,1038.6666666667,894,1052.3333333333,894.33333333333,1062,891,1070,885.66666666667,1078.6666666667,878,1173.3333333333,770.33333333333,1174.3333333333,727.33333333333,1076,837.33333333333,1067,844,1055.3333333333,850,1044.6666666667,849.33333333333,1034,847"></polygon><polygon  data-sec="1" data-build="1" data-floor="2" class="s3d-svg__house js-s3d-svg__house" points="769.66666666667,703,770.33333333333,731,767,732.33333333333,766,737,765,742.66666666667,766,747.33333333333,769.66666666667,752.33333333333,771.33333333333,753,1034.3333333333,847.66666666667,1044.3333333333,849,1054.3333333333,849.66666666667,1067.3333333333,844.33333333333,1076,836,1180.3333333333,720.66666666667,1180.6666666667,710,1178.6666666667,709.33333333333,1178.6666666667,674.33333333333,1073,790,1067,793.33333333333,1056.3333333333,796,1043.6666666667,795.66666666667"></polygon><polygon  data-sec="1" data-build="1" data-floor="3" class="s3d-svg__house js-s3d-svg__house" points="768.33333333333,651.33333333333,767.66666666667,677.66666666667,763.66666666667,678.66666666667,761.66666666667,684.66666666667,761.66666666667,688.33333333333,762,692.66666666667,763.33333333333,697.66666666667,768.66666666667,703.66666666667,1043,795.66666666667,1056,796.33333333333,1066.6666666667,793.33333333333,1072.6666666667,788.66666666667,1178.3333333333,673.33333333333,1182,670.33333333333,1183,667.66666666667,1183.3333333333,661.66666666667,1183.6666666667,658,1182.6666666667,655,1180.6666666667,653.66666666667,1181,625,1079.3333333333,732,1067.6666666667,739.66666666667,1057.3333333333,741.66666666667,1045.3333333333,741.66666666667"></polygon><polygon  data-sec="1" data-build="1" data-floor="4" class="s3d-svg__house js-s3d-svg__house" points="765,604,765.66666666667,630,763,631.33333333333,759.66666666667,635,759.66666666667,641.33333333333,760.66666666667,645,762,646.66666666667,764.33333333333,650,767.66666666667,650,1045.6666666667,741.66666666667,1057,741,1067,739.33333333333,1079.3333333333,731.33333333333,1181.3333333333,624,1183.6666666667,620.33333333333,1184.6666666667,617.66666666667,1184.6666666667,614,1184.6666666667,612.33333333333,1184.6666666667,609.33333333333,1182.6666666667,608.33333333333,1182,579,1076.6666666667,684.66666666667,1067.3333333333,689,1060.6666666667,690.33333333333,1051.6666666667,691"></polygon><polygon  data-sec="1" data-build="1" data-floor="5" class="s3d-svg__house js-s3d-svg__house" points="763,556.66666666667,763.33333333333,582,759.33333333333,585,757.66666666667,590,758,594,758.33333333333,598,761.33333333333,601,765,603,1052,690.33333333333,1061,690.66666666667,1068,688.66666666667,1076.6666666667,684.66666666667,1184.6666666667,576.66666666667,1188,573.66666666667,1188.3333333333,572,1188.3333333333,568,1188.3333333333,564.33333333333,1186.3333333333,561.66666666667,1186,560.66666666667,1185.6666666667,530,1081,630.66666666667,1075.6666666667,634.33333333333,1069,636.66666666667,1060.6666666667,639.33333333333,1049,637.66666666667"></polygon><polygon  data-sec="1" data-build="1" data-floor="6" class="s3d-svg__house js-s3d-svg__house" points="760.66666666667,505.66666666667,761,533.66666666667,757,535.66666666667,755.33333333333,540.33333333333,755.66666666667,545.33333333333,756,550.33333333333,759,554.33333333333,762.66666666667,556,1049.6666666667,638,1060.6666666667,638.33333333333,1068,636,1075.6666666667,634.33333333333,1081.6666666667,630,1189.3333333333,526,1192.3333333333,519,1192,514.66666666667,1189.6666666667,512.66666666667,1187.6666666667,512,1187.3333333333,482,1084.6666666667,576.33333333333,1078.6666666667,579.66666666667,1072.6666666667,582.33333333333,1067.3333333333,585,1058.3333333333,585,1050.6666666667,585"></polygon><polygon  data-sec="1" data-build="1" data-floor="7" class="s3d-svg__house js-s3d-svg__house" points="760,453.33333333333,759.66666666667,484,757,485.33333333333,755,487.66666666667,754.33333333333,492,755,495,755.33333333333,500,760.66666666667,505.33333333333,1050.6666666667,584,1057.6666666667,585,1067.3333333333,584.33333333333,1072,581.66666666667,1078.6666666667,580,1084.3333333333,576,1188,481,1192,477,1192.6666666667,472,1192.6666666667,468.66666666667,1191.6666666667,466.66666666667,1189,464.66666666667,1189.3333333333,432.33333333333,1085,522.33333333333,1077,527,1070,529.66666666667,1061,530.66666666667,1052.3333333333,530"></polygon><polygon  data-sec="1" data-build="1" data-floor="8" class="s3d-svg__house js-s3d-svg__house" points="757.66666666667,403,757.33333333333,434,753.33333333333,435.33333333333,753.33333333333,441,752.66666666667,447,756.66666666667,450.66666666667,759.33333333333,453.33333333333,1052,529,1061,530.33333333333,1070.6666666667,529,1077,526.33333333333,1085.3333333333,522.66666666667,1192.3333333333,428.33333333333,1194,427.33333333333,1194.6666666667,424.66666666667,1194.3333333333,421,1194.3333333333,418.66666666667,1192.6666666667,416,1190.3333333333,414,1193.3333333333,380.66666666667,1081.6666666667,470.33333333333,1073.6666666667,474.33333333333,1066.6666666667,475,1057.6666666667,475"></polygon><polygon  data-sec="1" data-build="1" data-floor="9" class="s3d-svg__house js-s3d-svg__house" points="755,349.66666666667,754,384.66666666667,751,386.66666666667,750.66666666667,391.33333333333,751,396.33333333333,752.66666666667,399,757.66666666667,403.33333333333,1058,475,1066.6666666667,474.66666666667,1073.6666666667,474.66666666667,1082.3333333333,470,1196,377.66666666667,1197.6666666667,374.66666666667,1197.6666666667,370.33333333333,1197.6666666667,367.66666666667,1196,366.66666666667,1194.3333333333,363.33333333333,1195,329.33333333333,1081,413.66666666667,1073.3333333333,417.33333333333,1064.6666666667,418,1053.3333333333,418"></polygon><polygon  data-sec="1" data-build="1" data-floor="10" class="s3d-svg__house js-s3d-svg__house" points="757,290,756.33333333333,308.66666666667,753,312,748.33333333333,316,748.66666666667,319,749.33333333333,324.66666666667,749.66666666667,328.33333333333,748,333,745.66666666667,336,745.66666666667,341,748,346.33333333333,751.66666666667,347.33333333333,753.66666666667,349,1054,418,1064.6666666667,417.66666666667,1072.6666666667,417,1080.3333333333,414.66666666667,1197.3333333333,326.33333333333,1199.3333333333,325,1200.6666666667,321.66666666667,1198.3333333333,316.66666666667,1197.3333333333,314.66666666667,1197.3333333333,267.66666666667,1093,341.33333333333,1082,349,1067,353.33333333333,1053.3333333333,352.66666666667"></polygon></svg>