<svg width="131" height="130" viewBox="0 0 131 130" fill="none" xmlns="http://www.w3.org/2000/svg">
<circle cx="65.5308" cy="65" r="65" fill="white"/>
<path d="M44.085 80.7099C35.5599 68.7972 38.3031 52.1586 50.2591 43.4913C62.2152 34.824 78.7741 37.417 87.2992 49.3297L68.5012 63.0019C68.3548 62.8592 68.2803 62.6424 68.1339 62.4997C66.8896 61.2868 65.0762 61.2488 63.7076 62.2207C63.5639 62.3689 63.3471 62.4458 63.2035 62.5941C61.9826 63.8541 61.9273 65.6738 62.883 67.0377L44.085 80.7099Z" stroke="#505050" stroke-width="0.5" stroke-miterlimit="10" stroke-linecap="round"/>
<path d="M63.781 62.2913L50.2593 43.4906L48.6422 41.1937L44.5999 35.5241" stroke="#505050" stroke-width="0.5" stroke-miterlimit="10" stroke-linecap="round"/>
<path d="M44.0852 80.7091L62.8832 67.0369C63.0296 67.1796 63.176 67.3223 63.3224 67.465C63.9079 68.0357 64.7089 68.3841 65.5072 68.4416C66.3054 68.4991 67.1009 68.2656 67.7487 67.744C67.8923 67.5958 68.1091 67.5189 68.2528 67.3706C68.6837 66.9259 68.9682 66.3385 69.1091 65.8993C69.3894 64.8755 69.2348 63.86 68.5746 63.0725L87.2994 49.3289C95.7499 61.0248 93.149 77.3697 81.6294 86.1741C81.4857 86.3224 81.2689 86.3992 81.1253 86.5475C80.9816 86.6957 80.7648 86.7726 80.6212 86.9209C68.7342 95.2231 52.4639 92.4791 44.0852 80.7091Z" stroke="#505050" stroke-width="0.5" stroke-miterlimit="10" stroke-linecap="round"/>
<path d="M82.4549 89.1414C82.5267 89.0673 82.7436 88.9904 82.8154 88.9163C82.8872 88.8422 83.0308 88.6939 83.1758 88.6912C96.0655 79.0603 98.9385 60.8188 89.6055 47.8304C80.1262 34.6993 61.8243 31.8487 48.6433 41.3396C35.4622 50.8306 32.3738 69.2944 41.8531 82.4255C51.1861 95.4139 69.1993 98.4156 82.4549 89.1414ZM50.2591 43.4911C62.2151 34.8238 78.774 37.4168 87.2991 49.3295L68.5012 63.0017C69.0895 63.8634 69.2441 64.8788 69.0356 65.8285C68.8961 66.4132 68.6102 66.8551 68.1793 67.2998C68.0357 67.4481 67.892 67.5963 67.6752 67.6732C67.0275 68.1948 66.232 68.4283 65.4337 68.3708C64.6355 68.3133 63.9076 68.0363 63.2489 67.3942C63.1025 67.2515 62.9561 67.1088 62.8097 66.9661L44.0118 80.6383C35.4881 68.871 38.303 52.1584 50.2591 43.4911Z" stroke="#505050" stroke-width="0.5" stroke-miterlimit="10" stroke-linecap="round"/>
<path d="M79.9483 84.8247L67.6765 67.8187" stroke="#505050" stroke-width="0.5" stroke-miterlimit="10" stroke-linecap="round"/>
<path d="M86.8577 94.586C85.8302 93.2962 84.2172 91.4357 82.455 89.1415C81.868 88.4253 81.2811 87.7091 80.6942 86.9928C75.7045 80.8322 69.2496 73.0991 65.5802 68.5136C66.3784 68.5711 67.1739 68.3376 67.8217 67.816C67.9653 67.6677 68.1821 67.5908 68.3257 67.4426C68.7567 66.9979 69.0412 66.4105 69.182 65.9713C72.2741 70.8589 77.6505 79.5582 81.8474 86.2433C82.3625 87.0337 82.8776 87.824 83.3195 88.543C84.7213 91.0623 86.047 93.2193 86.8577 94.586Z" fill="#E1345D" stroke="#505050" stroke-width="0.5" stroke-miterlimit="10" stroke-linecap="round" stroke-linejoin="round"/>
<path d="M95.2944 43.5762L89.6044 47.6861L87.2994 49.3306" stroke="#505050" stroke-width="0.5" stroke-miterlimit="10" stroke-linecap="round"/>
<path d="M44.085 80.7109L41.8531 82.4268L36.0913 86.6108" stroke="#505050" stroke-width="0.5" stroke-miterlimit="10" stroke-linecap="round"/>
<path d="M99.6401 100.004L99.6401 107.015L98.6616 107.015L98.6616 100.876L94.6077 100.876L94.6077 107.015L93.6191 107.015L93.6191 100.004L99.6401 100.004ZM101.66 101.707L102.619 101.707L102.619 103.96L105.634 103.96L105.634 101.707L106.593 101.707L106.593 107.015L105.634 107.015L105.634 104.792L102.619 104.792L102.619 107.015L101.66 107.015L101.66 101.707ZM108.666 107.075C108.48 107.075 108.32 107.012 108.187 106.885C108.054 106.751 107.987 106.584 107.987 106.384C107.987 106.19 108.054 106.03 108.187 105.903C108.32 105.77 108.48 105.703 108.666 105.703C108.853 105.703 109.009 105.766 109.135 105.893C109.262 106.02 109.325 106.184 109.325 106.384C109.325 106.584 109.259 106.751 109.125 106.885C108.999 107.012 108.846 107.075 108.666 107.075Z" fill="#505050"/>
<path d="M24.7445 107.095C24.0455 107.095 23.4131 106.941 22.8473 106.634C22.2881 106.321 21.8488 105.893 21.5293 105.352C21.2097 104.805 21.05 104.191 21.05 103.51C21.05 102.829 21.2097 102.218 21.5293 101.677C21.8488 101.129 22.2915 100.702 22.8573 100.395C23.4231 100.081 24.0555 99.9244 24.7544 99.9244C25.3003 99.9244 25.7995 100.018 26.2522 100.205C26.7049 100.385 27.091 100.655 27.4105 101.016L26.7614 101.647C26.2356 101.093 25.5799 100.816 24.7944 100.816C24.2752 100.816 23.8059 100.933 23.3865 101.166C22.9671 101.4 22.6376 101.724 22.398 102.138C22.165 102.545 22.0485 103.002 22.0485 103.51C22.0485 104.017 22.165 104.478 22.398 104.892C22.6376 105.299 22.9671 105.619 23.3865 105.853C23.8059 106.087 24.2752 106.204 24.7944 106.204C25.5732 106.204 26.2289 105.923 26.7614 105.362L27.4105 105.993C27.0909 106.354 26.7015 106.628 26.2422 106.815C25.7896 107.002 25.2903 107.095 24.7445 107.095ZM31.7657 107.015L30.238 104.982L28.6903 107.015L27.6219 107.015L29.7088 104.301L27.7217 101.707L28.7901 101.707L30.2479 103.62L31.6958 101.707L32.7442 101.707L30.7472 104.301L32.8541 107.015L31.7657 107.015ZM34.0724 107.075C33.886 107.075 33.7262 107.012 33.5931 106.885C33.46 106.751 33.3934 106.584 33.3934 106.384C33.3934 106.19 33.46 106.03 33.5931 105.903C33.7262 105.77 33.886 105.703 34.0724 105.703C34.2588 105.703 34.4152 105.766 34.5417 105.893C34.6682 106.02 34.7314 106.184 34.7314 106.384C34.7314 106.584 34.6648 106.751 34.5317 106.885C34.4052 107.012 34.2521 107.075 34.0724 107.075Z" fill="#505050"/>
<path d="M27.6401 23.0045L27.6401 30.0149L26.6616 30.0149L26.6616 23.8758L22.6077 23.8758L22.6077 30.0149L21.6191 30.0149L21.6191 23.0045L27.6401 23.0045ZM35.042 29.1737L35.0419 31.2467L34.1433 31.2467L34.1433 30.0149L29.7199 30.0149L29.7199 31.2467L28.8113 31.2467L28.8113 29.1737L29.0908 29.1737C29.4303 29.1536 29.6633 28.9133 29.7898 28.4526C29.9163 27.9919 30.0028 27.3409 30.0494 26.4997L30.1293 24.707L34.2332 24.707L34.2332 29.1737L35.042 29.1737ZM30.9281 26.5698C30.9015 27.2374 30.8449 27.7916 30.7584 28.2323C30.6785 28.6662 30.5287 28.98 30.309 29.1737L33.2746 29.1737L33.2746 25.5483L30.978 25.5483L30.9281 26.5698ZM36.5004 30.075C36.314 30.075 36.1542 30.0116 36.0211 29.8847C35.888 29.7512 35.8214 29.5843 35.8214 29.384C35.8214 29.1903 35.888 29.0301 36.0211 28.9032C36.1542 28.7697 36.314 28.7029 36.5004 28.7029C36.6868 28.7029 36.8432 28.7664 36.9697 28.8932C37.0962 29.0201 37.1594 29.1837 37.1594 29.384C37.1594 29.5843 37.0928 29.7512 36.9597 29.8847C36.8332 30.0116 36.6801 30.075 36.5004 30.075Z" fill="#505050"/>
<path d="M99.9641 26.3595C100.403 26.4796 100.746 26.69 100.993 26.9904C101.239 27.2842 101.362 27.638 101.362 28.052C101.362 28.4659 101.229 28.8298 100.963 29.1436C100.703 29.4507 100.354 29.6878 99.9142 29.8547C99.4815 30.0149 99.0089 30.095 98.4963 30.095C98.0304 30.095 97.5677 30.0249 97.1084 29.8847C96.6491 29.7445 96.2297 29.5342 95.8503 29.2538L96.1998 28.5127C96.506 28.753 96.8488 28.9333 97.2282 29.0535C97.6077 29.1737 97.9904 29.2337 98.3765 29.2337C98.9357 29.2337 99.405 29.1169 99.7844 28.8832C100.164 28.6429 100.354 28.3157 100.354 27.9018C100.354 27.5479 100.21 27.2775 99.9242 27.0906C99.638 26.8969 99.2352 26.8001 98.716 26.8001L97.1583 26.8001L97.1583 25.9889L98.6461 25.9889C99.0921 25.9889 99.4383 25.8988 99.6845 25.7185C99.9375 25.5316 100.064 25.2745 100.064 24.9474C100.064 24.5801 99.9009 24.2897 99.5747 24.0761C99.2485 23.8624 98.8358 23.7556 98.3366 23.7556C98.0104 23.7556 97.6776 23.8023 97.3381 23.8958C97.0052 23.9893 96.689 24.1295 96.3895 24.3164L96.07 23.4952C96.4228 23.2949 96.7955 23.1447 97.1883 23.0445C97.581 22.9444 97.9738 22.8943 98.3665 22.8943C98.8591 22.8943 99.3118 22.9711 99.7245 23.1246C100.137 23.2782 100.463 23.5019 100.703 23.7956C100.949 24.0894 101.072 24.4333 101.072 24.8272C101.072 25.181 100.973 25.4915 100.773 25.7586C100.58 26.0256 100.31 26.2259 99.9641 26.3595ZM106.171 30.0149L104.643 27.9819L103.095 30.0149L102.027 30.0149L104.114 27.3009L102.127 24.707L103.195 24.707L104.653 26.6199L106.101 24.707L107.149 24.707L105.152 27.3009L107.259 30.0149L106.171 30.0149ZM108.478 30.075C108.291 30.075 108.131 30.0116 107.998 29.8847C107.865 29.7512 107.799 29.5843 107.799 29.384C107.799 29.1903 107.865 29.0301 107.998 28.9032C108.131 28.7697 108.291 28.703 108.478 28.703C108.664 28.703 108.82 28.7664 108.947 28.8932C109.073 29.0201 109.137 29.1837 109.137 29.384C109.137 29.5843 109.07 29.7512 108.937 29.8847C108.81 30.0116 108.657 30.075 108.478 30.075Z" fill="#505050"/>
</svg>
