<svg width="12" height="10" viewBox="0 0 12 10" fill="none" xmlns="http://www.w3.org/2000/svg">
<rect x="6.09106" width="6.11111" height="1.11111" rx="0.555556" transform="rotate(90 6.09106 0)" fill="#1A191D"/>
<path d="M7.4998 3.90678C7.71675 4.12374 7.71675 4.4755 7.4998 4.69245L5.92845 6.2638C5.71149 6.48076 5.35973 6.48076 5.14277 6.2638C4.92582 6.04684 4.92582 5.69509 5.14277 5.47813L6.71412 3.90678C6.93108 3.68982 7.28284 3.68982 7.4998 3.90678Z" fill="#1A191D"/>
<path d="M3.59142 3.90669C3.37446 4.12365 3.37446 4.47541 3.59142 4.69237L5.16277 6.26372C5.37972 6.48068 5.73148 6.48068 5.94844 6.26372C6.1654 6.04676 6.1654 5.695 5.94844 5.47804L4.37709 3.90669C4.16013 3.68974 3.80838 3.68974 3.59142 3.90669Z" fill="#1A191D"/>
<path fill-rule="evenodd" clip-rule="evenodd" d="M0 6.6665V7.77761C0 9.00491 0.994923 9.99984 2.22222 9.99984H8.88889C10.1162 9.99984 11.1111 9.00491 11.1111 7.77761V6.6665H10V7.77761C10 8.39126 9.50254 8.88873 8.88889 8.88873H2.22222C1.60857 8.88873 1.11111 8.39126 1.11111 7.77761V6.6665H0Z" fill="#1A191D"/>
</svg>
