<svg width="15" height="15" viewBox="0 0 15 15" fill="none" xmlns="http://www.w3.org/2000/svg">
  <g clip-path="url(#clip0)">
    <path d="M11.9618 2.88623L11.0054 13.7839H3.99434L3.0382 2.88623L1.82666 2.99243L2.80025 14.0878C2.85149 14.5992 3.29522 15.0001 3.8107 15.0001H11.1891C11.7044 15.0001 12.1483 14.5994 12.2004 14.0805L13.1733 2.99243L11.9618 2.88623Z" fill="#1A191D"/>
    <path d="M9.72982 0H5.27036C4.71149 0 4.25684 0.454658 4.25684 1.01353V2.93921H5.47304V1.2162H9.52708V2.93918H10.7433V1.0135C10.7433 0.454658 10.2887 0 9.72982 0Z" fill="#1A191D"/>
    <path d="M13.9866 2.33105H1.01363C0.677744 2.33105 0.405518 2.60328 0.405518 2.93917C0.405518 3.27506 0.677744 3.54729 1.01363 3.54729H13.9866C14.3225 3.54729 14.5947 3.27506 14.5947 2.93917C14.5947 2.60328 14.3225 2.33105 13.9866 2.33105Z" fill="#1A191D"/>
  </g>
  <defs>
    <clipPath id="clip0">
      <rect width="15" height="15" fill="white"/>
    </clipPath>
  </defs>
</svg>
